<?xml version="1.0" encoding="UTF-8"?>
<svg width="1280px" height="640px" viewBox="0 0 640 320" version="1.1" xmlns="http://www.w3.org/2000/svg" xmlns:xlink="http://www.w3.org/1999/xlink">
    <g stroke="none" stroke-width="1" fill="none" fill-rule="evenodd">
        <rect fill="#EF4444" x="0" y="0" width="640" height="320"></rect>
        <path d="M116.108018,-8.48210391e-14 L157.981676,-2.51056996 L153.191511,3.88265942 L159.364614,3.88265942 L157.981676,9.0540077 L155.553275,11.1800954 L150.616297,23.0905634 L134.740771,37.0461103 L123.705695,49.142227 L123.705695,61.4048941 L129.759779,62.4144432 L134.740771,60.6133867 L137.301065,61.4048941 L142.394055,65.0821689 L142.394055,68.2452625 L147.209154,70.8561323 L147.209154,76.4402906 L156.259133,73.6641429 L163.945619,76.4402906 L165.523277,83.2786545 L168.806112,81.4821891 L174.172503,79.7021251 L182.035695,82.5533598 L184.794585,86.4479027 L180.924095,94.8517905 L179.393112,103.327264 L180.924095,110.940459 L178.404173,115.914132 L179.393112,123.269846 L172.976435,132.871483 L167.493088,135.952711 L163.945619,143.349416 L157.981676,146.520061 L157.981676,149.858476 L154.60143,156.726623 L151.303724,166.734335 L144.578498,165.687725 L141.072298,162.916609 L141.072298,157.728787 L140.0539,149.858476 L140.0539,138.73938 L143.683376,132.871483 L142.394055,130.149064 L144.578498,123.269846 L148.917159,106.38473 L144.578498,104.138416 L144.578498,97.8385943 L141.072298,97.8385943 L136.129049,103.327264 L136.129049,106.38473 L134.740771,113.28756 L136.129049,114.713805 L134.740771,127.62485 L131.970005,130.149064 L134.740771,134.585339 L134.740771,140.877463 L128.570397,146.520061 L127.539872,149.858476 L126.229659,154.958919 L121.940618,157.728787 L118.550808,154.04144 L116.108018,143.349416 L112.1758,140.877463 L107.414371,141.638854 L103.522515,144.966111 L101.319109,138.73938 L102.547116,134.585339 L101.319109,132.871483 L96.7698255,132.871483 L89.1694384,140.071126 L89.9392381,143.349416 L86.19783,149.858476 L88.1492933,151.819304 L89.9392381,166.734335 L92.9756536,170.350171 L89.9392381,181.751426 L91.0287647,186.352758 L92.9756536,181.751426 L92.9756536,174.055566 L98.7360767,172.204674 L101.319109,167.947604 L101.319109,159.055027 L105.871187,150.815768 L104.823396,146.520061 L107.414371,143.349416 L116.108018,147.475504 L117.223628,154.958919 L118.550808,156.726623 L117.223628,162.916609 L117.223628,165.687725 L124.435473,159.055027 L123.705695,167.947604 L126.229659,181.751426 L129.759779,185.34508 L131.970005,193.91383 L129.759779,202.597423 L134.740771,206.223206 L136.129049,211.500321 L134.740771,218.632762 L126.229659,217.672866 L126.229659,215.454573 L120.594509,213.18231 L123.705695,202.597423 L114.435096,210.735711 L116.108018,216.80208 L119.490627,215.454573 L122.920559,221.279454 L117.223628,224.625133 L110.246826,231.587372 L107.414371,230.805014 L107.414371,227.379748 L102.547116,229.728387 L102.547116,238.461342 L94.0029348,242.010707 L91.0287647,250.903409 L91.0287647,263.330589 L84.4797618,270.977901 L78.861994,278.53286 L78.861994,286.096211 L84.4797618,300.981633 L86.19783,300.981633 L86.19783,297.389459 L92.9756536,303.37511 L92.9756536,311.082289 L94.0029348,315.64982 L92.9756536,318.245312 L91.0287647,319.115133 L87.4147749,313.590617 L87.4147749,308.585397 L89.9392381,308.585397 L88.1492933,305.533487 L85.2204183,306.62575 L85.2204183,311.082289 L83.2644304,312.368848 L80.1507988,311.082289 L73.6770826,297.389459 L73.6770826,293.3067 L70.9193905,287.769591 L68.2805336,288.827779 L65.7273763,285.012997 L59.573154,282.761735 L61.0777716,286.096211 L58.528831,288.827779 L49.584821,282.761735 L46.5435982,280.555235 L43.6642932,283.44398 L41.2776114,285.012997 L40.3675684,288.827779 L41.2776114,296.131153 L41.2776114,316.504006 L43.6642932,320.963381 L18.5331397,320.963381 L17.2485517,316.504006 L18.5331397,313.590617 L7.63275922,275.589031 L7.63275922,269.134993 L5.13254872,262.036993 L6.67329585,278.53286 L9.00975051,290.187512 L6.67329585,293.3067 L4.33318166,291.273912 L-8.21565038e-14,274.084804 L-3.22813989,205.398513 L1.08851375,198.442421 L1.08851375,176.805557 L5.13254872,160.901853 L12.2509003,140.071126 L17.2485517,131.019035 L25.0145327,121.113341 L32.5371962,115.914132 L43.6642932,102.478834 L51.9009153,84.6538909 L58.528831,82.5533598 L67.0865273,70.8561323 L58.528831,78.3444045 L61.0777716,70.8561323 L67.0865273,63.4025341 L73.6770826,61.4048941 L72.7849138,66.056011 L107.414371,26.9470911 L116.108018,11.1800954 L109.442592,11.1800954 L116.108018,-8.48210391e-14 Z M126.705523,75.9286461 L126.705523,80.1329021 L129.615311,89.5989448 L131.057932,82.7637955 L128.881728,76.84254 L126.705523,75.9286461 Z M139.874699,72.7344382 L137.423959,79.8395073 L139.874699,81.1767095 L141.47162,75.9286461 L139.874699,72.7344382 Z M123.720516,119.599392 L116.657099,127.541047 L112.916257,127.541047 L112.916257,135.376942 L115.886052,133.777001 L119.532029,135.376942 L121.283915,131.811524 L118.318386,129.911136 L123.720516,119.599392 Z" fill="#3B82F6"></path>
        <polygon fill="#3B82F6" points="184.794585 132.344377 178.259555 135.376942 174.289792 135.376942 172.390909 143.792615 176.013615 146.468799 183.867591 145.588764 190.137172 136.30406 187.937343 133.765449"></polygon>
        <polygon fill="#3B82F6" points="207.012009 63.2970537 206.150614 72.7344382 210.279309 68.015746 214.652308 66.975401 210.401461 61.0862661"></polygon>
        <polygon fill="#3B82F6" points="202.58683 74.7614002 198.066493 75.9278089 193.399753 84.6374208 199.137142 90.1225298 204.512039 90.1225298 206.150614 87.7964898 204.512039 86.2419723 207.286854 84.6374208 207.286854 81.1767095 204.512039 79.2992831 205.365192 76.9555738"></polygon>
        <polygon fill="#3B82F6" points="228.196043 51.7939022 224.689364 53.8800969 224.689364 58.9541944 227.165987 65.9379933 229.329268 67.7250402 234.486856 71.7572932 237.269927 71.7572932 241.359394 69.9743171 243.493856 65.9379933 241.359394 64.3713998 237.269927 64.3713998 234.09161 61.7755977 230.91391 58.9541944 230.91391 53.8800969"></polygon>
        <polygon fill="#3B82F6" points="175.880576 7.83224648 175.880576 5.92120258 172.477469 5.92120258 172.477469 2.62792015 178.0327 -0.977329077 181.488375 -0.977329077 181.488375 2.62792015"></polygon>
        <polygon fill="#3B82F6" points="517.667973 269.419419 519.374207 277.530396 524.126286 273.474908 524.126286 269.419419"></polygon>
        <polygon fill="#3B82F6" points="424.900279 206.627739 426.739538 216.767192 423.183844 225.61163 425.812946 231.67844 430.460218 234.786796 430.460218 239.600404 439.557087 247.158036 445.074814 245.337553 447.727429 240.515323 437.014467 212.065741 431.433873 207.932767"></polygon>
        <polygon fill="#3B82F6" points="473.08735 -1.66483256 484.766877 4.43539566 494.149816 14.7988878 499.110965 22.4418591 502.850047 22.4418591 499.110965 11.846153 489.927259 4.43539566 494.149816 4.43539566 500.648808 8.31429707 507.583138 8.31429707 507.583138 11.846153 516.081638 17.086399 514.656001 11.846153 519.237634 13.8174417 528.315341 11.846153 514.656001 -2.87894956"></polygon>
        <polygon fill="#3B82F6" points="515.094336 23.8738308 511.448392 25.5765026 505.617121 24.7251667 503.752639 27.4309297 507.25583 31.3634631 511.448392 45.1252626 509.423487 51.2708644 511.448392 53.3811116 509.423487 55.3699375 513.374584 64.6849915 527.045976 72.3927867 536.499734 65.5636907 546.983414 65.5636907 535.442506 52.4141417 530.876114 41.7972316 535.442506 40.2769787 545.816031 56.6374314 554.86115 61.5773659 554.86115 55.3699375 561.675791 55.3699375 556.210006 45.1252626 546.983414 41.7972316 546.983414 33.9063267 540.137865 40.2769787 536.499734 37.4668799 544.059568 31.3634631 538.668523 22.4418591 536.499734 22.4418591 536.499734 29.5746889 532.714215 33.9063267 532.714215 38.370567 525.525681 37.4668799 519.915177 32.5341622"></polygon>
        <polygon fill="#3B82F6" points="537.057396 9.78145476 542.824693 22.4418591 553.168714 27.8082029 554.38112 24.2799394 547.446524 17.7726778"></polygon>
        <polygon fill="#3B82F6" points="564.033558 27.8082029 554.38112 38.8713022 560.289841 41.8021951 565.939013 34.805199 573.031698 33.6762066"></polygon>
        <polygon fill="#3B82F6" points="579.68319 56.045981 574.146129 56.045981 572.066578 65.3456447 573.031698 72.3927867 577.364282 72.3927867"></polygon>
        <path d="M568.377259,62.5617349 L570.47979,66.8831692 L567.027149,71.517446 L568.377259,77.9836812 L557.867241,77.9836812 L530.382755,91.8481212 L474.518259,76.9555738 L477.88315,73.4945433 L493.392952,72.3927867 L477.88315,69.1008929 L448.3561,52.4081578 L442.95525,60.9725129 L423.183844,54.7510441 L419.280383,62.5617349 L423.183844,75.4785385 L426.10408,90.1225298 L437.708824,100.375882 L442.95525,99.2586767 L451.061804,102.66182 L449.512944,111.356801 L440.335026,105.68751 L441.303186,111.356801 L435.455636,112.382164 L397.768476,99.2586767 L395.473057,102.66182 L377.609378,102.66182 L363.373606,121.453323 L374.608793,119.110464 L379.802316,127.602263 L377.609378,150.802589 L368.658811,170.729153 L373.254411,172.224504 L383.552175,153.28509 L385.730456,155.60721 L393.181528,167.743226 L393.181528,184.508905 L395.473057,212.077909 L407.958977,220.01406 L417.879086,231.98885 L414.407037,250.510025 L424.987735,257.928903 L423.183844,266.075734 L424.987735,271.447073 L426.10408,291.799676 L414.407037,311.206714 L402.256025,305.662468 L383.552175,297.811984 L369.642787,294.180421 L358.93801,287.540365 L353.134788,273.193865 L344.571885,268.618035 L326.048046,264.558999 L318.866845,253.833539 L312.952724,259.48321 L304.218556,259.48321 L296.484518,271.447073 L290.566613,276.155836 L283.184319,284.525092 L269.578824,287.540365 L254.132188,283.272351 L246.31952,279.890762 L243.493856,274.650527 L234.09161,262.597021 L230.893173,253.833539 L230.893173,241.845241 L234.09161,228.592636 L230.001348,222.439053 L232.090784,215.695751 L230.893173,208.335586 L224.689364,210.874995 L217.563693,196.833897 L216.085274,191.375998 L227.81856,182.525181 L226.426988,178.250969 L218.499117,177.002097 L214.652308,173.19733 L211.553584,167.743226 L204.663927,173.19733 L203.083654,164.878496 L203.083654,161.010903 L206.150614,157.902034 L203.083654,155.60721 L203.083654,147.547236 L211.553584,146.468799 L212.843473,150.802589 L220.22549,155.60721 L224.689364,157.902034 L224.689364,152.422432 L229.040957,146.468799 L223.383049,141.163543 L217.563693,139.406588 L212.843473,132.344377 L214.652308,121.453323 L217.563693,97.4471254 L220.22549,90.1225298 L230.001348,87.6565792 L243.493856,76.9555738 L247.40621,58.7157396 L238.839092,53.6530128 L238.839092,41.4224667 L234.09161,41.4224667 L227.81856,33.8438942 L217.563693,45.1696902 L210.401461,42.8584347 L223.383049,31.929054 L226.426988,23.0877386 L233.014485,18.7473428 L227.81856,11.8020868 L229.040957,3.4274587 L223.383049,3.4274587 L221.259899,8.91509001 L214.652308,16.8509646 L207.286854,10.8529305 L207.286854,6.1302448 L214.652308,7.83224648 L217.563693,3.4274587 L210.401461,-2.51056996 L444.873252,-4.63653408 L444.873252,11.8020868 L451.956967,11.8020868 L457.061156,19.8970505 L449.512944,21.4674067 L446.985689,16.8509646 L442.95525,16.8509646 L446.985689,23.9690844 L453.53674,25.8549722 L466.476055,23.9690844 L479.529756,31.929054 L484.357558,50.8421806 L465.049228,49.0168546 L470.894231,58.7157396 L480.506142,59.7627323 L490.668786,60.9725129 L506.459821,69.1008929 L503.752639,73.4945433 L519.760764,75.4785385 L526.88778,84.4273517 L535.902129,80.6025393 L552.827875,75.4785385 L568.377259,62.5617349 Z M357.730695,165.976261 L321.279508,161.039037 L354.624228,170.649428 L361.430462,169.436034 L357.730695,165.976261 Z M358.324495,124.684969 L339.661683,129.073337 L341.354985,132.284134 L359.397453,128.484552 L358.324495,124.684969 Z M300.335052,124.684969 L288.24407,126.344462 L286.542057,132.284134 L277.904556,132.344377 L281.219759,142.07839 L286.542057,139.406588 L290.054219,131.096313 L298.35948,128.484552 L300.335052,124.684969 Z M230.128774,114.939472 L230.128774,119.465263 L236.193854,121.311362 L237.893326,134.770953 L236.193854,139.406588 L243.986816,129.831072 L240.432523,124.684969 L240.432523,120.408276 L236.193854,119.465263 L230.128774,114.939472 Z M239.30082,202.704292 L242.951483,198.136433 L260.550063,178.950991 L260.550063,174.950976 L265.482121,169.720891 L253.483343,170.649428 L258.806067,177.782906 L253.483343,182.296272 L246.728148,170.649428 L239.30082,177.782906 L239.30082,186.672954 L239.30082,202.704292 Z M263.680189,178.581328 L267.616081,186.212592 L287.126015,179.459209 L284.731643,173.764037 L290.287474,169.720891 L310.907949,154.348528 L304.066513,143.498553 L304.066513,150.888255 L298.730068,150.888255 L293.023863,155.56037 L281.466895,154.348528 L287.126015,161.039037 L293.023863,158.158407 L293.023863,162.973104 L287.126015,164.855572 L279.984608,164.855572 L272.246702,162.973104 L266.648675,159.226406 L254.983252,161.039037 L266.648675,161.039037 L270.899238,165.844233 L269.163373,170.649428 L272.246702,176.031205 L263.680189,178.581328 Z" fill="#3B82F6"></path>
        <polygon fill="#3B82F6" points="562.846871 11.2846737 556.449046 14.5828848 556.449046 21.4393559 565.950076 25.0037903 574.754911 32.6920279 578.07486 27.8082029 589.059772 27.8082029 596.468174 35.919248 599.946121 43.9741954 606.340589 38.9536678 616.382644 41.8021951 617.708387 35.919248 614.349912 28.5960235 631.369239 40.3386757 644.718544 44.7890412 641.243671 35.919248 624.887254 25.0037903 616.382644 14.5828848 622.013415 11.2846737 619.976272 -2.87894956 610.80632 -1.3056003 610.80632 11.2846737 607.615203 9.78145476 596.468174 4.6745595 572.066578 7.6086389 573.031698 17.53799"></polygon>
        <polygon fill="#3B82F6" points="628.732759 4.84195536 637.280335 11.6904658 641.676159 8.26621059 628.732759 -3.75159419 624.206529 0"></polygon>
        <polygon fill="#3B82F6" points="617.770225 41.8021951 617.770225 49.7719853 626.670259 68.5682546 633.822392 87.031806 616.047362 75.9932099 613.346178 61.6076866 608.338386 57.7829487 606.379276 61.6076866 596.571376 59.9473493 594.737525 64.4170006 598.556842 66.3373877 596.571376 68.5682546 598.556842 81.8562124 591.383122 79.686269 588.225677 84.3287372 590.032606 114.119458 579.68319 126.674157 577.41919 123.076513 579.68319 139.23567 586.912518 154.154762 594.737525 169.995162 596.571376 180.460184 596.571376 183.812098 601.808119 187.618388 605.620791 186.641595 612.349062 180.460184 619.362965 179.645112 623.340667 171.823112 631.856551 169.161633 642.952715 179.645112 641.551069 68.5682546 635.973275 62.7814701 634.736423 64.4170006 625.719803 50.7987107"></polygon>
        <path d="M125.365625,187.710938 C127.439203,187.710938 129.385799,187.160813 131.205469,186.060547 C133.02514,184.960281 134.622617,183.4157 135.99795,181.426758 C137.373282,179.437816 138.452373,177.142103 139.235254,174.539551 C140.018136,171.936999 140.409571,169.154637 140.409571,166.192383 C140.409571,162.679995 139.520908,159.844737 137.743555,157.686523 C135.966202,155.52831 133.596434,154.449219 130.63418,154.449219 C128.645238,154.449219 126.74096,155.020502 124.921289,156.163086 C123.101619,157.30567 121.493562,158.881989 120.097071,160.89209 C118.700579,162.902191 117.60033,165.197904 116.796289,167.779297 C115.992249,170.36069 115.590235,173.090155 115.590235,175.967773 C115.590235,179.522479 116.478898,182.368316 118.25625,184.505371 C120.033603,186.642426 122.403371,187.710938 125.365625,187.710938 Z M103.974024,228.907227 L78.8373051,228.907227 L98.5150394,136.421875 L123.016993,136.421875 L120.922266,146.197266 L121.430079,146.197266 C124.180743,142.515607 127.407436,139.796721 131.110254,138.040527 C134.813072,136.284334 138.843794,135.40625 143.202539,135.40625 C147.984464,135.40625 152.1104,136.474761 155.580469,138.611816 C159.050539,140.748871 161.727107,143.795716 163.610254,147.752441 C165.493402,151.709167 166.434961,156.438124 166.434961,161.939453 C166.434961,168.498731 165.567457,174.550102 163.832422,180.09375 C162.097388,185.637398 159.674723,190.461568 156.564356,194.566406 C153.453989,198.671244 149.782964,201.85562 145.551172,204.119629 C141.31938,206.383638 136.685638,207.515625 131.649805,207.515625 C128.349007,207.515625 125.386797,206.997238 122.763086,205.960449 C120.139375,204.92366 117.907138,203.389659 116.066309,201.358398 C114.225479,199.327138 112.839588,196.872736 111.908594,193.995117 L111.464258,193.995117 L103.974024,228.907227 Z M163.169727,206.5 L178.213672,136.421875 L202.779102,136.421875 L200.747852,146.578125 L201.255664,146.578125 C202.863745,143.319645 205.148879,140.643077 208.111133,138.54834 C211.073387,136.453603 214.437612,135.40625 218.203907,135.40625 C220.192849,135.40625 221.949016,135.55436 223.472461,135.850586 C224.995906,136.146811 226.455853,136.612302 227.852344,137.24707 L223.091602,159.019531 C221.483521,158.257809 219.854305,157.633629 218.203907,157.146973 C216.553508,156.660317 214.670388,156.416992 212.554492,156.416992 C209.803828,156.416992 207.317687,156.935379 205.095996,157.972168 C202.874306,159.008957 201.001766,160.585276 199.478321,162.701172 C197.954875,164.817068 196.833467,167.483057 196.114063,170.699219 L188.369922,206.5 L163.169727,206.5 Z M256.008008,189.043945 C258.843309,189.043945 261.392925,188.070648 263.656934,186.124023 C265.920943,184.177399 267.719427,181.532569 269.052442,178.189453 C270.385456,174.846337 271.051953,171.101258 271.051953,166.954102 C271.051953,163.018535 270.195028,159.855318 268.481153,157.464355 C266.767277,155.073393 264.471564,153.87793 261.593946,153.87793 C258.716327,153.87793 256.134973,154.840648 253.849805,156.766113 C251.564637,158.691579 249.766153,161.31525 248.454297,164.637207 C247.142442,167.959164 246.486524,171.735981 246.486524,175.967773 C246.486524,179.861022 247.364607,183.01366 249.120801,185.425781 C250.876995,187.837903 253.172707,189.043945 256.008008,189.043945 Z M262.863477,134.644531 C269.592026,134.644531 275.505867,135.977526 280.605176,138.643555 C285.704485,141.309584 289.671731,145.022925 292.507031,149.783691 C295.342332,154.544457 296.759961,160.098601 296.759961,166.446289 C296.759961,172.54007 295.733767,178.14711 293.681348,183.267578 C291.628929,188.388046 288.730195,192.810203 284.985059,196.53418 C281.239923,200.258157 276.817767,203.146311 271.718457,205.19873 C266.619148,207.25115 261.001528,208.277344 254.86543,208.277344 C248.136881,208.277344 242.233619,206.944349 237.155469,204.27832 C232.077319,201.612291 228.110073,197.88837 225.253613,193.106445 C222.397154,188.32452 220.968946,182.780956 220.968946,176.475586 C220.968946,170.381805 221.99514,164.774765 224.047559,159.654297 C226.099978,154.533829 228.998712,150.111672 232.743848,146.387695 C236.488984,142.663718 240.91114,139.775564 246.010449,137.723145 C251.109759,135.670725 256.727378,134.644531 262.863477,134.644531 Z M333.992774,136.421875 L318.123633,210.879883 C316.727142,217.43916 313.394655,222.623028 308.126074,226.431641 C302.857493,230.240253 296.435845,232.144531 288.860938,232.144531 C287.083585,232.144531 285.126411,232.038738 282.989356,231.827148 C280.852301,231.615559 279.127871,231.361655 277.816016,231.06543 L281.688086,213.482422 C282.195901,213.609376 282.84124,213.715169 283.624121,213.799805 C284.407003,213.884441 285.263928,213.926758 286.194922,213.926758 C288.2685,213.926758 289.929453,213.42953 291.177832,212.435059 C292.426211,211.440587 293.21966,210.097014 293.558203,208.404297 L308.856055,136.421875 L333.992774,136.421875 Z M325.423438,129.693359 C321.953368,129.693359 319.022896,128.497896 316.631934,126.106934 C314.240971,123.715971 313.045508,120.870134 313.045508,117.569336 C313.045508,114.268538 314.240971,111.422701 316.631934,109.031738 C319.022896,106.640776 321.953368,105.445312 325.423438,105.445312 C328.893507,105.445312 331.823979,106.640776 334.214942,109.031738 C336.605904,111.422701 337.801367,114.268538 337.801367,117.569336 C337.801367,120.870134 336.605904,123.715971 334.214942,126.106934 C331.823979,128.497896 328.893507,129.693359 325.423438,129.693359 Z M331.806641,179.712891 L336.503906,157.623047 L377.763672,157.623047 L373.066406,179.712891 L331.806641,179.712891 Z M381.417383,136.358398 L406.744531,136.358398 L407.125391,185.044922 L407.633203,185.044922 L428.516992,136.358398 L455.304101,136.358398 L417.789453,206.5 L388.336328,206.5 L381.417383,136.358398 Z M447.087695,206.5 L462.004687,136.421875 L487.204883,136.421875 L472.28789,206.5 L447.087695,206.5 Z M478.635547,129.693359 C475.165477,129.693359 472.235005,128.497896 469.844043,126.106934 C467.45308,123.715971 466.257617,120.870134 466.257617,117.569336 C466.257617,114.268538 467.45308,111.422701 469.844043,109.031738 C472.235005,106.640776 475.165477,105.445312 478.635547,105.445312 C482.105616,105.445312 485.036088,106.640776 487.427051,109.031738 C489.818013,111.422701 491.013476,114.268538 491.013476,117.569336 C491.013476,120.870134 489.818013,123.715971 487.427051,126.106934 C485.036088,128.497896 482.105616,129.693359 478.635547,129.693359 Z M493.016797,158.257812 C493.016797,153.475888 494.339212,149.318214 496.984082,145.784668 C499.628952,142.251122 503.342294,139.511077 508.124218,137.564453 C512.906143,135.617829 518.555501,134.644531 525.072461,134.644531 C531.123923,134.644531 536.487639,135.638987 541.163769,137.62793 C545.839899,139.616872 549.532083,142.388654 552.240429,145.943359 C554.948776,149.498065 556.387564,153.602841 556.556836,158.257812 L534.086133,158.257812 C534.001497,156.861321 533.557165,155.623541 532.753125,154.544434 C531.949084,153.465327 530.859414,152.62956 529.484082,152.037109 C528.108749,151.444658 526.511272,151.148438 524.691601,151.148438 C523.08352,151.148438 521.68705,151.349445 520.502148,151.751465 C519.317246,152.153485 518.407425,152.724768 517.772656,153.465332 C517.137887,154.205896 516.820508,155.083979 516.820508,156.099609 C516.820508,157.369147 517.40237,158.4165 518.566113,159.241699 C519.729856,160.066899 521.983251,161.050776 525.326367,162.193359 L533.197461,164.859375 C539.92601,167.144543 544.697284,169.757635 547.511425,172.69873 C550.325567,175.639826 551.732617,179.458961 551.732617,184.15625 C551.732617,189.022811 550.367884,193.265119 547.638379,196.883301 C544.908873,200.501483 541.068579,203.305003 536.117383,205.293945 C531.166186,207.282888 525.326401,208.277344 518.597851,208.277344 C511.826984,208.277344 505.923723,207.282888 500.88789,205.293945 C495.852058,203.305003 491.92713,200.469745 489.112988,196.788086 C486.298846,193.106427 484.786003,188.768905 484.574414,183.775391 L508.314648,183.775391 C508.441602,186.102876 509.488955,188.007154 511.456738,189.488281 C513.424521,190.969408 516.016455,191.709961 519.232617,191.709961 C520.883016,191.709961 522.268907,191.530112 523.390332,191.17041 C524.511757,190.810708 525.368682,190.281742 525.961133,189.583496 C526.553583,188.88525 526.849804,188.049484 526.849804,187.076172 C526.849804,185.848952 526.257362,184.812179 525.072461,183.96582 C523.887559,183.119462 521.729377,182.167323 518.597851,181.109375 L512.250195,178.951172 C505.733235,176.708322 500.898486,173.904802 497.7458,170.540527 C494.593115,167.176253 493.016797,163.082055 493.016797,158.257812 Z" fill="#FFFFFF" fill-rule="nonzero"></path>
    </g>
</svg>
